<svg xmlns="http://www.w3.org/2000/svg" viewBox="-1350 80 720 530" width="720" height="530" shape-rendering="geometricPrecision"><style>
    text {
      font-family: Inter, system-ui, Avenir, Helvetica, Arial, sans-serif;
    }
  </style><g><g transform="translate(-1230, 390)"><svg width="210" height="160" viewBox="0 0 210 160" overflow="visible"><g><rect stroke="#000000" fill="#ffffff" stroke-width="2" x="0" y="0" width="210" height="160"></rect><rect x="1" y="1" width="208" height="39" fill="#ffffff"></rect><text x="105" y="20" fill="#000000" dominant-baseline="middle" text-anchor="middle" font-weight="bold" font-family="Inter, system-ui, Avenir, Helvetica, Arial, sans-serif" text-decoration="normal" font-size="16px"><tspan x="105" dy="0" font-style="normal">User</tspan></text><line x1="0" x2="210" y1="40" y2="40" stroke="#000000" stroke-width="2"></line><g transform="translate(0, 40)"><g><rect x="1" y="1" width="208" height="28" fill="#ffffff"></rect><text x="10" y="15" fill="#000000" dominant-baseline="middle" text-anchor="start" font-weight="400" font-family="Inter, system-ui, Avenir, Helvetica, Arial, sans-serif" font-size="16px">preferences</text></g><g><rect x="1" y="31" width="208" height="28" fill="#ffffff"></rect><text x="10" y="45" fill="#000000" dominant-baseline="middle" text-anchor="start" font-weight="400" font-family="Inter, system-ui, Avenir, Helvetica, Arial, sans-serif" font-size="16px">username</text></g><g><rect x="1" y="61" width="208" height="28" fill="#ffffff"></rect><text x="10" y="75" fill="#000000" dominant-baseline="middle" text-anchor="start" font-weight="400" font-family="Inter, system-ui, Avenir, Helvetica, Arial, sans-serif" font-size="16px">password</text></g></g><line x1="0" x2="210" y1="130" y2="130" stroke="#000000" stroke-width="2"></line><g transform="translate(0, 130)"><g><rect x="1" y="1" width="208" height="28" fill="#ffffff"></rect><text x="10" y="15" fill="#000000" dominant-baseline="middle" text-anchor="start" font-weight="400" font-family="Inter, system-ui, Avenir, Helvetica, Arial, sans-serif" font-size="16px">adjustPreferences()</text></g></g></g></svg></g><g transform="translate(-850, 140)"><svg width="160" height="280" viewBox="0 0 160 280" overflow="visible"><g><rect stroke="#000000" fill="#ffffff" stroke-width="2" x="0" y="0" width="160" height="280"></rect><rect x="1" y="1" width="158" height="39" fill="#ffffff"></rect><text x="80" y="20" fill="#000000" dominant-baseline="middle" text-anchor="middle" font-weight="bold" font-family="Inter, system-ui, Avenir, Helvetica, Arial, sans-serif" text-decoration="normal" font-size="16px"><tspan x="80" dy="0" font-style="normal">Recipe</tspan></text><line x1="0" x2="160" y1="40" y2="40" stroke="#000000" stroke-width="2"></line><g transform="translate(0, 40)"><g><rect x="1" y="1" width="158" height="28" fill="#ffffff"></rect><text x="10" y="15" fill="#000000" dominant-baseline="middle" text-anchor="start" font-weight="400" font-family="Inter, system-ui, Avenir, Helvetica, Arial, sans-serif" font-size="16px">title</text></g><g><rect x="1" y="31" width="158" height="28" fill="#ffffff"></rect><text x="10" y="45" fill="#000000" dominant-baseline="middle" text-anchor="start" font-weight="400" font-family="Inter, system-ui, Avenir, Helvetica, Arial, sans-serif" font-size="16px">ingredients</text></g><g><rect x="1" y="61" width="158" height="28" fill="#ffffff"></rect><text x="10" y="75" fill="#000000" dominant-baseline="middle" text-anchor="start" font-weight="400" font-family="Inter, system-ui, Avenir, Helvetica, Arial, sans-serif" font-size="16px">instructions</text></g><g><rect x="1" y="91" width="158" height="28" fill="#ffffff"></rect><text x="10" y="105" fill="#000000" dominant-baseline="middle" text-anchor="start" font-weight="400" font-family="Inter, system-ui, Avenir, Helvetica, Arial, sans-serif" font-size="16px">portions</text></g><g><rect x="1" y="121" width="158" height="28" fill="#ffffff"></rect><text x="10" y="135" fill="#000000" dominant-baseline="middle" text-anchor="start" font-weight="400" font-family="Inter, system-ui, Avenir, Helvetica, Arial, sans-serif" font-size="16px">nutrients</text></g></g><line x1="0" x2="160" y1="190" y2="190" stroke="#000000" stroke-width="2"></line><g transform="translate(0, 190)"><g><rect x="1" y="1" width="158" height="28" fill="#ffffff"></rect><text x="10" y="15" fill="#000000" dominant-baseline="middle" text-anchor="start" font-weight="400" font-family="Inter, system-ui, Avenir, Helvetica, Arial, sans-serif" font-size="16px">adjustPortions()</text></g><g><rect x="1" y="31" width="158" height="28" fill="#ffffff"></rect><text x="10" y="45" fill="#000000" dominant-baseline="middle" text-anchor="start" font-weight="400" font-family="Inter, system-ui, Avenir, Helvetica, Arial, sans-serif" font-size="16px">getHelp()</text></g><g><rect x="1" y="61" width="158" height="28" fill="#ffffff"></rect><text x="10" y="75" fill="#000000" dominant-baseline="middle" text-anchor="start" font-weight="400" font-family="Inter, system-ui, Avenir, Helvetica, Arial, sans-serif" font-size="16px">store(username)</text></g></g></g></svg></g><g transform="translate(-1290, 140)"><svg width="330" height="70" viewBox="0 0 330 70" overflow="visible"><g><rect stroke="#000000" fill="#ffffff" stroke-width="2" x="0" y="0" width="330" height="70"></rect><rect x="1" y="1" width="328" height="39" fill="#ffffff"></rect><text x="165" y="20" fill="#000000" dominant-baseline="middle" text-anchor="middle" font-weight="bold" font-family="Inter, system-ui, Avenir, Helvetica, Arial, sans-serif" text-decoration="normal" font-size="16px"><tspan x="165" dy="0" font-style="normal">GeneratedRecipes</tspan></text><line x1="0" x2="330" y1="40" y2="40" stroke="#000000" stroke-width="2"></line><g transform="translate(0, 40)"></g><line x1="0" x2="330" y1="40" y2="40" stroke="#000000" stroke-width="2"></line><g transform="translate(0, 40)"><g><rect x="1" y="1" width="328" height="28" fill="#ffffff"></rect><text x="10" y="15" fill="#000000" dominant-baseline="middle" text-anchor="start" font-weight="400" font-family="Inter, system-ui, Avenir, Helvetica, Arial, sans-serif" font-size="16px">generateRecipes(userInput, preferences)</text></g></g></g></svg></g></g><g><path id="72656086-21c0-4468-9c43-51fb05e04d2f" d="M -959 175 L -905 175 L -905 280 L -851 280" fill="none" class="react-flow__edge-path" stroke-width="2" stroke="#000000" opacity="1" stroke-opacity="1"></path><text x="-856" y="270" text-anchor="end" style="user-select: none" font-size="16px" fill="#000000" font-weight="400" font-family="Inter, system-ui, Avenir, Helvetica, Arial, sans-serif">*</text><path id="bb1765f6-8ff7-42ff-919c-f941355eabbf" d="M -1125 390 L -1125 210" fill="none" class="react-flow__edge-path" stroke-width="2" stroke="#000000" opacity="1" stroke-opacity="1"></path><path d="M-1133,228 L-1125,210 L-1117,228" fill="none" stroke="#000000" stroke-width="1.5" stroke-linecap="round" stroke-linejoin="round" data-inline-marker="true"></path><path id="c913e34d-d6f3-4a90-82e5-1076f673ceda" d="M -770 421 L -770 470 L -1019 470" fill="none" class="react-flow__edge-path" stroke-width="2" stroke="#000000" opacity="1" stroke-opacity="1"></path><text x="-780" y="436" text-anchor="end" style="user-select: none" font-size="16px" fill="#000000" font-weight="400" font-family="Inter, system-ui, Avenir, Helvetica, Arial, sans-serif">likedRecipes</text><text x="-760" y="436" text-anchor="start" style="user-select: none" font-size="16px" fill="#000000" font-weight="400" font-family="Inter, system-ui, Avenir, Helvetica, Arial, sans-serif">*</text></g></svg>
